<svg width="18" height="20" viewBox="0 0 18 20" fill="none" xmlns="http://www.w3.org/2000/svg">
<path d="M9.37476 7.49981H14.9996V6.76732C14.9997 6.59402 14.9757 6.42154 14.9284 6.25484L14.9271 6.24984C14.8393 5.94469 14.6754 5.66685 14.4509 5.44236L9.55725 0.548736C9.20576 0.197472 8.72921 0.000106099 8.23229 0H2.49994C1.83691 0 1.20104 0.263385 0.732214 0.732214C0.263385 1.20104 0 1.83691 0 2.49994V17.4995C0 18.1626 0.263385 18.7984 0.732214 19.2673C1.20104 19.7361 1.83691 19.9995 2.49994 19.9995H5.27611L5.25986 19.967C5.0652 19.5921 4.97659 19.1711 5.00362 18.7495H2.49994C2.16842 18.7495 1.85049 18.6178 1.61608 18.3834C1.38166 18.149 1.24997 17.8311 1.24997 17.4995V2.49994C1.24997 2.16842 1.38166 1.85049 1.61608 1.61607C1.85049 1.38166 2.16842 1.24997 2.49994 1.24997H7.49981V5.62485C7.49981 6.12212 7.69734 6.59902 8.04897 6.95065C8.40059 7.30227 8.87749 7.49981 9.37476 7.49981ZM9.37476 6.24984C9.209 6.24984 9.05003 6.18399 8.93283 6.06678C8.81562 5.94958 8.74977 5.79061 8.74977 5.62485V1.50871L13.4909 6.24984H9.37476Z" fill="#17C0EB"/>
<path d="M13.5122 9.43476C13.7286 9.21499 13.9865 9.04024 14.2708 8.92059C14.5551 8.80094 14.8603 8.73875 15.1688 8.73762C15.4773 8.73648 15.7829 8.79642 16.0681 8.91397C16.3533 9.03152 16.6125 9.20436 16.8305 9.42253C17.0486 9.6407 17.2214 9.89988 17.3388 10.1851C17.4563 10.4704 17.5161 10.7761 17.5148 11.0845C17.5136 11.393 17.4513 11.6982 17.3315 11.9825C17.2118 12.2668 17.0369 12.5245 16.8171 12.7409L10.7797 18.777C10.428 19.1289 9.98734 19.3786 9.50475 19.4995L7.6323 19.967C7.44612 20.0134 7.2511 20.0108 7.06619 19.9596C6.88128 19.9083 6.71276 19.8101 6.57702 19.6745C6.44128 19.5389 6.34292 19.3705 6.29151 19.1856C6.24009 19.0008 6.23736 18.8057 6.28359 18.6195L6.75233 16.7471C6.87232 16.2646 7.12232 15.8221 7.47481 15.4721L13.5122 9.43476Z" fill="#17C0EB"/>
</svg>
