<svg width="20" height="20" viewBox="0 0 20 20" fill="none" xmlns="http://www.w3.org/2000/svg">
<path d="M5.66667 4C5.75507 4 5.83986 4.03512 5.90237 4.09763C5.96488 4.16014 6 4.24493 6 4.33333H6.66667C6.66667 4.06812 6.56131 3.81376 6.37377 3.62623C6.18624 3.43869 5.93188 3.33333 5.66667 3.33333H5.33333V2.66667H4.66667V3.33333H4.33333C4.06812 3.33333 3.81376 3.43869 3.62623 3.62623C3.43869 3.81376 3.33333 4.06812 3.33333 4.33333C3.33333 4.59855 3.43869 4.8529 3.62623 5.04044C3.81376 5.22798 4.06812 5.33333 4.33333 5.33333H4.66667V6H4.33333C4.24493 6 4.16014 5.96488 4.09763 5.90237C4.03512 5.83986 4 5.75507 4 5.66667H3.33333C3.33333 5.93188 3.43869 6.18624 3.62623 6.37377C3.81376 6.56131 4.06812 6.66667 4.33333 6.66667H4.66667V7.33333H5.33333V6.66667H5.66667C5.93188 6.66667 6.18624 6.56131 6.37377 6.37377C6.56131 6.18624 6.66667 5.93188 6.66667 5.66667C6.66667 5.40145 6.56131 5.1471 6.37377 4.95956C6.18624 4.77202 5.93188 4.66667 5.66667 4.66667H5.33333V4H5.66667ZM5.66667 5.33333C5.75507 5.33333 5.83986 5.36845 5.90237 5.43096C5.96488 5.49348 6 5.57826 6 5.66667C6 5.75507 5.96488 5.83986 5.90237 5.90237C5.83986 5.96488 5.75507 6 5.66667 6H5.33333V5.33333H5.66667ZM4.66667 4.66667H4.33333C4.24493 4.66667 4.16014 4.63155 4.09763 4.56904C4.03512 4.50652 4 4.42174 4 4.33333C4 4.24493 4.03512 4.16014 4.09763 4.09763C4.16014 4.03512 4.24493 4 4.33333 4H4.66667V4.66667Z" fill="#848A9D"/>
<path d="M19 0H9C8.73503 0.000791364 8.48113 0.106402 8.29377 0.293767C8.1064 0.481133 8.00079 0.735027 8 1V2.9C7.69366 2.46088 7.29477 2.09425 6.83143 1.82594C6.36809 1.55763 5.85157 1.39416 5.31822 1.34703C4.78488 1.2999 4.24769 1.37027 3.74448 1.55318C3.24127 1.73609 2.78428 2.02708 2.40568 2.40568C2.02708 2.78428 1.73609 3.24127 1.55318 3.74448C1.37027 4.24769 1.2999 4.78488 1.34703 5.31822C1.39416 5.85157 1.55763 6.36809 1.82594 6.83143C2.09425 7.29477 2.46088 7.69366 2.9 8H1.66667C1.57826 8 1.49348 8.03512 1.43096 8.09763C1.36845 8.16014 1.33333 8.24493 1.33333 8.33333V12H0.333333C0.244928 12 0.160143 12.0351 0.0976311 12.0976C0.0351189 12.1601 0 12.2449 0 12.3333V19.6667C0 19.7551 0.0351189 19.8399 0.0976311 19.9024C0.160143 19.9649 0.244928 20 0.333333 20H19.3333C19.4217 20 19.5065 19.9649 19.569 19.9024C19.6315 19.8399 19.6667 19.7551 19.6667 19.6667V18C19.6667 17.9116 19.6315 17.8268 19.569 17.7643C19.5065 17.7018 19.4217 17.6667 19.3333 17.6667H19V17.3433L19.9233 16.21C19.9728 16.1512 20 16.0768 20 16V1C19.9992 0.735027 19.8936 0.481133 19.7062 0.293767C19.5189 0.106402 19.265 0.000791364 19 0ZM8.01333 14.12C8.04205 14.3618 8.15823 14.5848 8.33998 14.7469C8.52172 14.909 8.75648 14.999 9 15H9.06667C9.28677 15.3812 9.37495 15.8244 9.31753 16.2609C9.2601 16.6973 9.06028 17.1027 8.74906 17.414C8.43783 17.7253 8.03258 17.9253 7.59614 17.9828C7.15971 18.0404 6.71648 17.9524 6.33517 17.7324C5.95386 17.5124 5.65579 17.1727 5.48716 16.7661C5.31854 16.3595 5.28878 15.9086 5.40252 15.4833C5.51625 15.058 5.76711 14.6822 6.1162 14.414C6.4653 14.1458 6.89312 14.0003 7.33333 14C7.56534 13.9992 7.79563 14.0398 8.01333 14.12ZM9.8 15H11.97L12.6667 15.5033V16.7C12.3466 16.7657 12.0528 16.9239 11.8217 17.155C11.5906 17.3861 11.4324 17.6799 11.3667 18H9.09C9.50814 17.6377 9.80171 17.153 9.92914 16.6146C10.0566 16.0762 10.0114 15.5113 9.8 15ZM5.57667 18H3.3C3.23427 17.6799 3.07607 17.3861 2.84499 17.155C2.61391 16.9239 2.32012 16.7657 2 16.7V15.3C2.32012 15.2343 2.61391 15.0761 2.84499 14.845C3.07607 14.6139 3.23427 14.3201 3.3 14H5.57667C5.29089 14.249 5.0618 14.5563 4.90481 14.9013C4.74782 15.2463 4.6666 15.621 4.6666 16C4.6666 16.379 4.74782 16.7537 4.90481 17.0987C5.0618 17.4437 5.29089 17.751 5.57667 18ZM8 8H7.1C7.44944 7.75389 7.75389 7.44944 8 7.1V8ZM2 5C2 4.40666 2.17595 3.82664 2.50559 3.33329C2.83524 2.83994 3.30377 2.45542 3.85195 2.22836C4.40013 2.0013 5.00333 1.94189 5.58527 2.05764C6.16721 2.1734 6.70176 2.45912 7.12132 2.87868C7.54088 3.29824 7.8266 3.83279 7.94236 4.41473C8.05811 4.99667 7.9987 5.59987 7.77164 6.14805C7.54458 6.69623 7.16006 7.16477 6.66671 7.49441C6.17336 7.82405 5.59334 8 5 8C4.20473 7.99877 3.44238 7.6823 2.88004 7.11996C2.3177 6.55762 2.00123 5.79527 2 5ZM2 8.66667H8V10H2V8.66667ZM2 10.6667H8V12H2V10.6667ZM13.3333 17.6667C13.2449 17.6667 13.1601 17.7018 13.0976 17.7643C13.0351 17.8268 13 17.9116 13 18V19.3333H0.666667V12.6667H8V13.3333H3C2.91159 13.3333 2.82681 13.3685 2.7643 13.431C2.70179 13.4935 2.66667 13.5783 2.66667 13.6667C2.66588 13.9316 2.56026 14.1855 2.3729 14.3729C2.18553 14.5603 1.93164 14.6659 1.66667 14.6667C1.57826 14.6667 1.49348 14.7018 1.43096 14.7643C1.36845 14.8268 1.33333 14.9116 1.33333 15V17C1.33333 17.0884 1.36845 17.1732 1.43096 17.2357C1.49348 17.2982 1.57826 17.3333 1.66667 17.3333C1.93164 17.3341 2.18553 17.4397 2.3729 17.6271C2.56026 17.8145 2.66588 18.0684 2.66667 18.3333C2.66667 18.4217 2.70179 18.5065 2.7643 18.569C2.82681 18.6315 2.91159 18.6667 3 18.6667H11.6667C11.7551 18.6667 11.8399 18.6315 11.9024 18.569C11.9649 18.5065 12 18.4217 12 18.3333C12.0008 18.0684 12.1064 17.8145 12.2938 17.6271C12.4811 17.4397 12.735 17.3341 13 17.3333C13.0331 17.3318 13.0657 17.3251 13.0967 17.3133L13.3867 17.6667H13.3333ZM19 19.3333H13.6667V18.3333H19V19.3333ZM19.3333 15.88L18.41 17.0133C18.3605 17.0721 18.3333 17.1465 18.3333 17.2233V17.6667H14.2467L13.3333 16.5467V15.3333C13.3335 15.2807 13.3212 15.2289 13.2974 15.1819C13.2737 15.135 13.2391 15.0944 13.1967 15.0633L11.3567 13.7367C11.3001 13.6894 11.2546 13.6302 11.2235 13.5634C11.1924 13.4966 11.1764 13.4237 11.1767 13.35C11.178 13.2316 11.2204 13.1173 11.2967 13.0267C11.3821 12.9256 11.5041 12.8626 11.6359 12.8514C11.7678 12.8401 11.8987 12.8816 12 12.9667C12.0159 12.9789 12.0326 12.9901 12.05 13L12.8367 13.4467C12.8872 13.4748 12.9442 13.4893 13.0021 13.4887C13.06 13.4881 13.1167 13.4725 13.1667 13.4433C13.2173 13.4146 13.2595 13.3729 13.2888 13.3225C13.318 13.2722 13.3334 13.2149 13.3333 13.1567V8.83333C13.3333 8.70073 13.386 8.57355 13.4798 8.47978C13.5735 8.38601 13.7007 8.33333 13.8333 8.33333C13.9659 8.33333 14.0931 8.38601 14.1869 8.47978C14.2807 8.57355 14.3333 8.70073 14.3333 8.83333V11.1667C14.3333 11.2551 14.3685 11.3399 14.431 11.4024C14.4935 11.4649 14.5783 11.5 14.6667 11.5C14.7551 11.5 14.8399 11.4649 14.9024 11.4024C14.9649 11.3399 15 11.2551 15 11.1667C15 11.0341 15.0527 10.9069 15.1464 10.8131C15.2402 10.7193 15.3674 10.6667 15.5 10.6667C15.6326 10.6667 15.7598 10.7193 15.8536 10.8131C15.9473 10.9069 16 11.0341 16 11.1667C16 11.2551 16.0351 11.3399 16.0976 11.4024C16.1601 11.4649 16.2449 11.5 16.3333 11.5C16.4217 11.5 16.5065 11.4649 16.569 11.4024C16.6315 11.3399 16.6667 11.2551 16.6667 11.1667C16.6667 11.0341 16.7193 10.9069 16.8131 10.8131C16.9069 10.7193 17.0341 10.6667 17.1667 10.6667C17.2993 10.6667 17.4265 10.7193 17.5202 10.8131C17.614 10.9069 17.6667 11.0341 17.6667 11.1667V11.5C17.6667 11.5884 17.7018 11.6732 17.7643 11.7357C17.8268 11.7982 17.9116 11.8333 18 11.8333C18.0884 11.8333 18.1732 11.7982 18.2357 11.7357C18.2982 11.6732 18.3333 11.5884 18.3333 11.5C18.3333 11.3674 18.386 11.2402 18.4798 11.1464C18.5735 11.0527 18.7007 11 18.8333 11C18.9659 11 19.0931 11.0527 19.1869 11.1464C19.2807 11.2402 19.3333 11.3674 19.3333 11.5V15.88ZM10.7833 12.6C10.6863 12.7183 10.6127 12.8541 10.5667 13H10V11.6667H11.3333V12.2367C11.1191 12.3028 10.9282 12.4289 10.7833 12.6ZM16.6667 10.1167V8.33333H18V10.3533C17.8916 10.2419 17.7621 10.1532 17.619 10.0926C17.4759 10.0319 17.3221 10.0004 17.1667 10C16.9933 10.0007 16.8224 10.0406 16.6667 10.1167ZM19.3333 10.45C19.1776 10.3739 19.0067 10.334 18.8333 10.3333C18.7776 10.3343 18.7219 10.3388 18.6667 10.3467V8C18.6667 7.91159 18.6315 7.82681 18.569 7.7643C18.5065 7.70179 18.4217 7.66667 18.3333 7.66667H16.3333C16.2449 7.66667 16.1601 7.70179 16.0976 7.7643C16.0351 7.82681 16 7.91159 16 8V10.1167C15.8444 10.0405 15.6736 10.0006 15.5004 9.99999C15.3272 9.99941 15.1561 10.0382 15 10.1133V8.83333C15 8.52391 14.8771 8.22717 14.6583 8.00838C14.4395 7.78958 14.1428 7.66667 13.8333 7.66667C13.5239 7.66667 13.2272 7.78958 13.0084 8.00838C12.7896 8.22717 12.6667 8.52391 12.6667 8.83333V12.5833L12.4 12.4333C12.2819 12.339 12.1458 12.2698 12 12.23V11.3333C12 11.2449 11.9649 11.1601 11.9024 11.0976C11.8399 11.0351 11.7551 11 11.6667 11H9.66667C9.57826 11 9.49348 11.0351 9.43096 11.0976C9.36845 11.1601 9.33333 11.2449 9.33333 11.3333V13.3333C9.33333 13.4217 9.36845 13.5065 9.43096 13.569C9.49348 13.6315 9.57826 13.6667 9.66667 13.6667H10.56C10.627 13.8977 10.7602 14.104 10.9433 14.26L11.0467 14.3333H9C8.91159 14.3333 8.82681 14.2982 8.7643 14.2357C8.70179 14.1732 8.66667 14.0884 8.66667 14V1C8.66667 0.911595 8.70179 0.82681 8.7643 0.764298C8.82681 0.701786 8.91159 0.666667 9 0.666667H19C19.0884 0.666667 19.1732 0.701786 19.2357 0.764298C19.2982 0.82681 19.3333 0.911595 19.3333 1V10.45Z" fill="#848A9D"/>
<path d="M9.66667 4H18.3333C18.4217 4 18.5065 3.96488 18.569 3.90237C18.6315 3.83986 18.6667 3.75507 18.6667 3.66667V1.66667C18.6667 1.57826 18.6315 1.49348 18.569 1.43096C18.5065 1.36845 18.4217 1.33333 18.3333 1.33333H9.66667C9.57826 1.33333 9.49348 1.36845 9.43096 1.43096C9.36845 1.49348 9.33333 1.57826 9.33333 1.66667V3.66667C9.33333 3.75507 9.36845 3.83986 9.43096 3.90237C9.49348 3.96488 9.57826 4 9.66667 4ZM10 2H18V3.33333H10V2Z" fill="#848A9D"/>
<path d="M9.66667 7H11.6667C11.7551 7 11.8399 6.96488 11.9024 6.90237C11.9649 6.83986 12 6.75507 12 6.66667V4.66667C12 4.57826 11.9649 4.49348 11.9024 4.43096C11.8399 4.36845 11.7551 4.33333 11.6667 4.33333H9.66667C9.57826 4.33333 9.49348 4.36845 9.43096 4.43096C9.36845 4.49348 9.33333 4.57826 9.33333 4.66667V6.66667C9.33333 6.75507 9.36845 6.83986 9.43096 6.90237C9.49348 6.96488 9.57826 7 9.66667 7ZM10 5H11.3333V6.33333H10V5Z" fill="#848A9D"/>
<path d="M15 4.33333H13C12.9116 4.33333 12.8268 4.36845 12.7643 4.43096C12.7018 4.49348 12.6667 4.57826 12.6667 4.66667V6.66667C12.6667 6.75507 12.7018 6.83986 12.7643 6.90237C12.8268 6.96488 12.9116 7 13 7H15C15.0884 7 15.1732 6.96488 15.2357 6.90237C15.2982 6.83986 15.3333 6.75507 15.3333 6.66667V4.66667C15.3333 4.57826 15.2982 4.49348 15.2357 4.43096C15.1732 4.36845 15.0884 4.33333 15 4.33333ZM14.6667 6.33333H13.3333V5H14.6667V6.33333Z" fill="#848A9D"/>
<path d="M18.3333 4.33333H16.3333C16.2449 4.33333 16.1601 4.36845 16.0976 4.43096C16.0351 4.49348 16 4.57826 16 4.66667V6.66667C16 6.75507 16.0351 6.83986 16.0976 6.90237C16.1601 6.96488 16.2449 7 16.3333 7H18.3333C18.4217 7 18.5065 6.96488 18.569 6.90237C18.6315 6.83986 18.6667 6.75507 18.6667 6.66667V4.66667C18.6667 4.57826 18.6315 4.49348 18.569 4.43096C18.5065 4.36845 18.4217 4.33333 18.3333 4.33333ZM18 6.33333H16.6667V5H18V6.33333Z" fill="#848A9D"/>
<path d="M9.66667 10.3333H11.6667C11.7551 10.3333 11.8399 10.2982 11.9024 10.2357C11.9649 10.1732 12 10.0884 12 10V8C12 7.91159 11.9649 7.82681 11.9024 7.7643C11.8399 7.70179 11.7551 7.66667 11.6667 7.66667H9.66667C9.57826 7.66667 9.49348 7.70179 9.43096 7.7643C9.36845 7.82681 9.33333 7.91159 9.33333 8V10C9.33333 10.0884 9.36845 10.1732 9.43096 10.2357C9.49348 10.2982 9.57826 10.3333 9.66667 10.3333ZM10 8.33333H11.3333V9.66667H10V8.33333Z" fill="#848A9D"/>
</svg>
