<svg width="32" height="32" viewBox="0 0 32 32" fill="none" xmlns="http://www.w3.org/2000/svg">
<path d="M9.06667 6.4C9.20812 6.4 9.34377 6.45619 9.44379 6.55621C9.54381 6.65623 9.6 6.79188 9.6 6.93333H10.6667C10.6667 6.50899 10.4981 6.10202 10.198 5.80196C9.89798 5.5019 9.49101 5.33333 9.06667 5.33333H8.53333V4.26667H7.46667V5.33333H6.93333C6.50899 5.33333 6.10202 5.5019 5.80196 5.80196C5.5019 6.10202 5.33333 6.50899 5.33333 6.93333C5.33333 7.35768 5.5019 7.76465 5.80196 8.0647C6.10202 8.36476 6.50899 8.53333 6.93333 8.53333H7.46667V9.6H6.93333C6.79188 9.6 6.65623 9.54381 6.55621 9.44379C6.45619 9.34377 6.4 9.20812 6.4 9.06667H5.33333C5.33333 9.49101 5.5019 9.89798 5.80196 10.198C6.10202 10.4981 6.50899 10.6667 6.93333 10.6667H7.46667V11.7333H8.53333V10.6667H9.06667C9.49101 10.6667 9.89798 10.4981 10.198 10.198C10.4981 9.89798 10.6667 9.49101 10.6667 9.06667C10.6667 8.64232 10.4981 8.23535 10.198 7.9353C9.89798 7.63524 9.49101 7.46667 9.06667 7.46667H8.53333V6.4H9.06667ZM9.06667 8.53333C9.20812 8.53333 9.34377 8.58952 9.44379 8.68954C9.54381 8.78956 9.6 8.92522 9.6 9.06667C9.6 9.20812 9.54381 9.34377 9.44379 9.44379C9.34377 9.54381 9.20812 9.6 9.06667 9.6H8.53333V8.53333H9.06667ZM7.46667 7.46667H6.93333C6.79188 7.46667 6.65623 7.41048 6.55621 7.31046C6.45619 7.21044 6.4 7.07478 6.4 6.93333C6.4 6.79188 6.45619 6.65623 6.55621 6.55621C6.65623 6.45619 6.79188 6.4 6.93333 6.4H7.46667V7.46667Z" fill="white"/>
<path d="M30.4 0H14.4C13.976 0.00126618 13.5698 0.170244 13.27 0.470028C12.9702 0.769812 12.8013 1.17604 12.8 1.6V4.64C12.3098 3.93741 11.6716 3.35081 10.9303 2.92151C10.1889 2.49221 9.3625 2.23065 8.50916 2.15525C7.65581 2.07985 6.79631 2.19244 5.99117 2.48509C5.18604 2.77774 4.45485 3.24333 3.84909 3.84909C3.24333 4.45485 2.77774 5.18604 2.48509 5.99117C2.19244 6.79631 2.07985 7.65581 2.15525 8.50916C2.23065 9.3625 2.49221 10.1889 2.92151 10.9303C3.35081 11.6716 3.93741 12.3098 4.64 12.8H2.66667C2.52522 12.8 2.38956 12.8562 2.28954 12.9562C2.18952 13.0562 2.13333 13.1919 2.13333 13.3333V19.2H0.533333C0.391885 19.2 0.256229 19.2562 0.15621 19.3562C0.0561903 19.4562 0 19.5919 0 19.7333V31.4667C0 31.6081 0.0561903 31.7438 0.15621 31.8438C0.256229 31.9438 0.391885 32 0.533333 32H30.9333C31.0748 32 31.2104 31.9438 31.3105 31.8438C31.4105 31.7438 31.4667 31.6081 31.4667 31.4667V28.8C31.4667 28.6586 31.4105 28.5229 31.3105 28.4229C31.2104 28.3229 31.0748 28.2667 30.9333 28.2667H30.4V27.7493L31.8773 25.936C31.9565 25.842 32 25.723 32 25.6V1.6C31.9987 1.17604 31.8298 0.769812 31.53 0.470028C31.2302 0.170244 30.824 0.00126618 30.4 0ZM12.8213 22.592C12.8673 22.9789 13.0532 23.3357 13.344 23.595C13.6348 23.8544 14.0104 23.9984 14.4 24H14.5067C14.8588 24.61 14.9999 25.3191 14.908 26.0174C14.8162 26.7158 14.4965 27.3643 13.9985 27.8624C13.5005 28.3605 12.8521 28.6804 12.1538 28.7725C11.4555 28.8646 10.7464 28.7238 10.1363 28.3718C9.52618 28.0198 9.04926 27.4764 8.77946 26.8258C8.50966 26.1752 8.46205 25.4537 8.64402 24.7733C8.82599 24.0928 9.22737 23.4915 9.78592 23.0624C10.3445 22.6333 11.029 22.4005 11.7333 22.4C12.1045 22.3987 12.473 22.4637 12.8213 22.592ZM15.68 24H19.152L20.2667 24.8053V26.72C19.7545 26.8252 19.2844 27.0783 18.9147 27.448C18.545 27.8177 18.2918 28.2878 18.1867 28.8H14.544C15.213 28.2203 15.6827 27.4448 15.8866 26.5833C16.0905 25.7219 16.0182 24.8181 15.68 24ZM8.92267 28.8H5.28C5.17484 28.2878 4.92171 27.8177 4.55199 27.448C4.18226 27.0783 3.71219 26.8252 3.2 26.72V24.48C3.71219 24.3748 4.18226 24.1217 4.55199 23.752C4.92171 23.3823 5.17484 22.9122 5.28 22.4H8.92267C8.46543 22.7984 8.09887 23.2901 7.8477 23.8421C7.59652 24.3941 7.46655 24.9935 7.46655 25.6C7.46655 26.2065 7.59652 26.8059 7.8477 27.3579C8.09887 27.9099 8.46543 28.4016 8.92267 28.8ZM12.8 12.8H11.36C11.9191 12.4062 12.4062 11.9191 12.8 11.36V12.8ZM3.2 8C3.2 7.05065 3.48151 6.12262 4.00895 5.33326C4.53638 4.54391 5.28603 3.92868 6.16312 3.56538C7.0402 3.20208 8.00533 3.10702 8.93643 3.29223C9.86754 3.47744 10.7228 3.9346 11.3941 4.60589C12.0654 5.27718 12.5226 6.13246 12.7078 7.06357C12.893 7.99468 12.7979 8.9598 12.4346 9.83688C12.0713 10.714 11.4561 11.4636 10.6667 11.9911C9.87738 12.5185 8.94935 12.8 8 12.8C6.72757 12.798 5.50782 12.2917 4.60807 11.3919C3.70832 10.4922 3.20197 9.27243 3.2 8ZM3.2 13.8667H12.8V16H3.2V13.8667ZM3.2 17.0667H12.8V19.2H3.2V17.0667ZM21.3333 28.2667C21.1919 28.2667 21.0562 28.3229 20.9562 28.4229C20.8562 28.5229 20.8 28.6586 20.8 28.8V30.9333H1.06667V20.2667H12.8V21.3333H4.8C4.65855 21.3333 4.5229 21.3895 4.42288 21.4895C4.32286 21.5896 4.26667 21.7252 4.26667 21.8667C4.2654 22.2906 4.09642 22.6969 3.79664 22.9966C3.49685 23.2964 3.09062 23.4654 2.66667 23.4667C2.52522 23.4667 2.38956 23.5229 2.28954 23.6229C2.18952 23.7229 2.13333 23.8586 2.13333 24V27.2C2.13333 27.3414 2.18952 27.4771 2.28954 27.5771C2.38956 27.6771 2.52522 27.7333 2.66667 27.7333C3.09062 27.7346 3.49685 27.9036 3.79664 28.2034C4.09642 28.5031 4.2654 28.9094 4.26667 29.3333C4.26667 29.4748 4.32286 29.6104 4.42288 29.7105C4.5229 29.8105 4.65855 29.8667 4.8 29.8667H18.6667C18.8081 29.8667 18.9438 29.8105 19.0438 29.7105C19.1438 29.6104 19.2 29.4748 19.2 29.3333C19.2013 28.9094 19.3702 28.5031 19.67 28.2034C19.9698 27.9036 20.376 27.7346 20.8 27.7333C20.8529 27.7309 20.9051 27.7201 20.9547 27.7013L21.4187 28.2667H21.3333ZM30.4 30.9333H21.8667V29.3333H30.4V30.9333ZM30.9333 25.408L29.456 27.2213C29.3768 27.3154 29.3333 27.4344 29.3333 27.5573V28.2667H22.7947L21.3333 26.4747V24.5333C21.3336 24.4492 21.3139 24.3662 21.2758 24.2911C21.2378 24.216 21.1826 24.151 21.1147 24.1013L18.1707 21.9787C18.0802 21.903 18.0074 21.8084 17.9576 21.7015C17.9079 21.5945 17.8823 21.4779 17.8827 21.36C17.8847 21.1705 17.9526 20.9876 18.0747 20.8427C18.2114 20.681 18.4066 20.5802 18.6175 20.5622C18.8284 20.5442 19.0379 20.6105 19.2 20.7467C19.2254 20.7663 19.2521 20.7841 19.28 20.8L20.5387 21.5147C20.6196 21.5597 20.7108 21.5829 20.8034 21.5819C20.8959 21.581 20.9867 21.556 21.0667 21.5093C21.1477 21.4633 21.2152 21.3966 21.262 21.3161C21.3089 21.2355 21.3335 21.1439 21.3333 21.0507V14.1333C21.3333 13.9212 21.4176 13.7177 21.5676 13.5676C21.7177 13.4176 21.9212 13.3333 22.1333 13.3333C22.3455 13.3333 22.549 13.4176 22.699 13.5676C22.849 13.7177 22.9333 13.9212 22.9333 14.1333V17.8667C22.9333 18.0081 22.9895 18.1438 23.0895 18.2438C23.1896 18.3438 23.3252 18.4 23.4667 18.4C23.6081 18.4 23.7438 18.3438 23.8438 18.2438C23.9438 18.1438 24 18.0081 24 17.8667C24 17.6545 24.0843 17.451 24.2343 17.301C24.3843 17.151 24.5878 17.0667 24.8 17.0667C25.0122 17.0667 25.2157 17.151 25.3657 17.301C25.5157 17.451 25.6 17.6545 25.6 17.8667C25.6 18.0081 25.6562 18.1438 25.7562 18.2438C25.8562 18.3438 25.9919 18.4 26.1333 18.4C26.2748 18.4 26.4104 18.3438 26.5105 18.2438C26.6105 18.1438 26.6667 18.0081 26.6667 17.8667C26.6667 17.6545 26.751 17.451 26.901 17.301C27.051 17.151 27.2545 17.0667 27.4667 17.0667C27.6788 17.0667 27.8823 17.151 28.0324 17.301C28.1824 17.451 28.2667 17.6545 28.2667 17.8667V18.4C28.2667 18.5414 28.3229 18.6771 28.4229 18.7771C28.5229 18.8771 28.6586 18.9333 28.8 18.9333C28.9414 18.9333 29.0771 18.8771 29.1771 18.7771C29.2771 18.6771 29.3333 18.5414 29.3333 18.4C29.3333 18.1878 29.4176 17.9843 29.5676 17.8343C29.7177 17.6843 29.9212 17.6 30.1333 17.6C30.3455 17.6 30.549 17.6843 30.699 17.8343C30.849 17.9843 30.9333 18.1878 30.9333 18.4V25.408ZM17.2533 20.16C17.098 20.3493 16.9804 20.5665 16.9067 20.8H16V18.6667H18.1333V19.5787C17.7905 19.6845 17.4852 19.8862 17.2533 20.16ZM26.6667 16.1867V13.3333H28.8V16.5653C28.6266 16.387 28.4194 16.2452 28.1904 16.1481C27.9614 16.051 27.7154 16.0007 27.4667 16C27.1893 16.0011 26.9158 16.0649 26.6667 16.1867ZM30.9333 16.72C30.6842 16.5982 30.4107 16.5344 30.1333 16.5333C30.0441 16.5349 29.955 16.5421 29.8667 16.5547V12.8C29.8667 12.6586 29.8105 12.5229 29.7105 12.4229C29.6104 12.3229 29.4748 12.2667 29.3333 12.2667H26.1333C25.9919 12.2667 25.8562 12.3229 25.7562 12.4229C25.6562 12.5229 25.6 12.6586 25.6 12.8V16.1867C25.3511 16.0647 25.0778 16.0009 24.8006 16C24.5235 15.9991 24.2497 16.0611 24 16.1813V14.1333C24 13.6383 23.8033 13.1635 23.4533 12.8134C23.1032 12.4633 22.6284 12.2667 22.1333 12.2667C21.6383 12.2667 21.1635 12.4633 20.8134 12.8134C20.4633 13.1635 20.2667 13.6383 20.2667 14.1333V20.1333L19.84 19.8933C19.651 19.7425 19.4333 19.6317 19.2 19.568V18.1333C19.2 17.9919 19.1438 17.8562 19.0438 17.7562C18.9438 17.6562 18.8081 17.6 18.6667 17.6H15.4667C15.3252 17.6 15.1896 17.6562 15.0895 17.7562C14.9895 17.8562 14.9333 17.9919 14.9333 18.1333V21.3333C14.9333 21.4748 14.9895 21.6104 15.0895 21.7105C15.1896 21.8105 15.3252 21.8667 15.4667 21.8667H16.896C17.0031 22.2363 17.2164 22.5664 17.5093 22.816L17.6747 22.9333H14.4C14.2586 22.9333 14.1229 22.8771 14.0229 22.7771C13.9229 22.6771 13.8667 22.5414 13.8667 22.4V1.6C13.8667 1.45855 13.9229 1.3229 14.0229 1.22288C14.1229 1.12286 14.2586 1.06667 14.4 1.06667H30.4C30.5414 1.06667 30.6771 1.12286 30.7771 1.22288C30.8771 1.3229 30.9333 1.45855 30.9333 1.6V16.72Z" fill="white"/>
<path d="M15.4667 6.4H29.3333C29.4748 6.4 29.6104 6.34381 29.7105 6.24379C29.8105 6.14377 29.8667 6.00812 29.8667 5.86667V2.66667C29.8667 2.52522 29.8105 2.38956 29.7105 2.28954C29.6104 2.18952 29.4748 2.13333 29.3333 2.13333H15.4667C15.3252 2.13333 15.1896 2.18952 15.0895 2.28954C14.9895 2.38956 14.9333 2.52522 14.9333 2.66667V5.86667C14.9333 6.00812 14.9895 6.14377 15.0895 6.24379C15.1896 6.34381 15.3252 6.4 15.4667 6.4ZM16 3.2H28.8V5.33333H16V3.2Z" fill="white"/>
<path d="M15.4667 11.2H18.6667C18.8081 11.2 18.9438 11.1438 19.0438 11.0438C19.1438 10.9438 19.2 10.8081 19.2 10.6667V7.46667C19.2 7.32522 19.1438 7.18956 19.0438 7.08954C18.9438 6.98952 18.8081 6.93333 18.6667 6.93333H15.4667C15.3252 6.93333 15.1896 6.98952 15.0895 7.08954C14.9895 7.18956 14.9333 7.32522 14.9333 7.46667V10.6667C14.9333 10.8081 14.9895 10.9438 15.0895 11.0438C15.1896 11.1438 15.3252 11.2 15.4667 11.2ZM16 8H18.1333V10.1333H16V8Z" fill="white"/>
<path d="M24 6.93333H20.8C20.6586 6.93333 20.5229 6.98952 20.4229 7.08954C20.3229 7.18956 20.2667 7.32522 20.2667 7.46667V10.6667C20.2667 10.8081 20.3229 10.9438 20.4229 11.0438C20.5229 11.1438 20.6586 11.2 20.8 11.2H24C24.1414 11.2 24.2771 11.1438 24.3771 11.0438C24.4771 10.9438 24.5333 10.8081 24.5333 10.6667V7.46667C24.5333 7.32522 24.4771 7.18956 24.3771 7.08954C24.2771 6.98952 24.1414 6.93333 24 6.93333ZM23.4667 10.1333H21.3333V8H23.4667V10.1333Z" fill="white"/>
<path d="M29.3333 6.93333H26.1333C25.9919 6.93333 25.8562 6.98952 25.7562 7.08954C25.6562 7.18956 25.6 7.32522 25.6 7.46667V10.6667C25.6 10.8081 25.6562 10.9438 25.7562 11.0438C25.8562 11.1438 25.9919 11.2 26.1333 11.2H29.3333C29.4748 11.2 29.6104 11.1438 29.7105 11.0438C29.8105 10.9438 29.8667 10.8081 29.8667 10.6667V7.46667C29.8667 7.32522 29.8105 7.18956 29.7105 7.08954C29.6104 6.98952 29.4748 6.93333 29.3333 6.93333ZM28.8 10.1333H26.6667V8H28.8V10.1333Z" fill="white"/>
<path d="M15.4667 16.5333H18.6667C18.8081 16.5333 18.9438 16.4771 19.0438 16.3771C19.1438 16.2771 19.2 16.1414 19.2 16V12.8C19.2 12.6586 19.1438 12.5229 19.0438 12.4229C18.9438 12.3229 18.8081 12.2667 18.6667 12.2667H15.4667C15.3252 12.2667 15.1896 12.3229 15.0895 12.4229C14.9895 12.5229 14.9333 12.6586 14.9333 12.8V16C14.9333 16.1414 14.9895 16.2771 15.0895 16.3771C15.1896 16.4771 15.3252 16.5333 15.4667 16.5333ZM16 13.3333H18.1333V15.4667H16V13.3333Z" fill="white"/>
</svg>
